PathFileType	4	(X/Y/Z)	OpenSim_Sub02_CSStiffKnee_Magnet.trc
DataRate	CameraRate	NumFrames	NumMarkers	Units	OrigDataRate	OrigDataStartFrame	OrigNumFrames
100	100	20	8	m	100	4307	6891
Frame#	Time	torso_imu_offset_imu	pelvis_imu_offset_imu	tibia_r_imu_offset_imu	femur_r_imu_offset_imu	tibia_l_imu_offset_imu	femur_l_imu_offset_imu	toes_r_imu_offset_imu	toes_l_imu_offset_imu
				X1	Y1	Z1	X2	Y2	Z2	X3	Y3	Z3	X4	Y4	Z4	X5	Y5	Z5	X6	Y6	Z6	X7	Y7	Z7	X8		Y8	Z8	

4307	43.06000000	-0.95401228	-0.07648094	0.02182961	-0.65108446	0.07418173	-0.67059664	-0.33904354	-0.70692413	-0.27350343	-0.69986787	-0.42838842	0.21471281	-0.64546674	0.52403459	-0.01888049	-0.64530797	0.15880445	0.21648349	-0.70924419	-0.38716761	-0.32304347	-0.64934661	-0.21645496	-0.44399749
4308	43.07000000	-0.95336392	-0.07851491	0.01714881	-0.65236274	0.07273194	-0.66701882	-0.32934971	-0.71626761	-0.27076095	-0.70368309	-0.43198546	0.21450206	-0.62578695	0.54458314	-0.03613828	-0.64818203	0.15055454	0.21708505	-0.72102803	-0.39272629	-0.30770695	-0.64209225	-0.20822356	-0.46422763
4309	43.08000000	-0.95437014	-0.07856612	0.01907386	-0.65794283	0.08221264	-0.66060554	-0.31750276	-0.72191859	-0.27729950	-0.70176756	-0.42952651	0.21129584	-0.61765098	0.56056836	-0.03761923	-0.64404528	0.14849849	0.21537440	-0.72856706	-0.39915512	-0.29514540	-0.64482289	-0.20416564	-0.46437788
4310	43.09000000	-0.95830503	-0.08119393	0.01361278	-0.65304830	0.08691638	-0.65993597	-0.30348074	-0.73201022	-0.27548529	-0.70394835	-0.43051607	0.21849630	-0.60124368	0.56776921	-0.03701201	-0.64639237	0.15138564	0.21831305	-0.73806797	-0.40598293	-0.27684987	-0.64607303	-0.20382449	-0.46688647
4311	43.10000000	-0.95441304	-0.08224132	0.00679723	-0.65487794	0.08690728	-0.66146135	-0.29120167	-0.72826223	-0.27443296	-0.70407557	-0.43129592	0.21633630	-0.60846545	0.56896802	-0.05246671	-0.64006990	0.14890751	0.22294677	-0.75175872	-0.41403888	-0.25418226	-0.65156027	-0.19562548	-0.46626886
4312	43.11000000	-0.94923230	-0.08021691	0.00112904	-0.65773054	0.08881999	-0.66045226	-0.27169729	-0.73795988	-0.27571298	-0.70905897	-0.42752137	0.20924864	-0.60010075	0.56983860	-0.05626948	-0.63261620	0.16021986	0.22669860	-0.76030284	-0.41764723	-0.23196737	-0.64689350	-0.20314907	-0.46739124
4313	43.12000000	-0.95203144	-0.08036418	-0.00148072	-0.65031994	0.09236092	-0.66371458	-0.26167819	-0.74300232	-0.27675105	-0.70921634	-0.42372039	0.20884426	-0.59689684	0.57753267	-0.05557277	-0.63122608	0.16429361	0.22971522	-0.77238715	-0.42317065	-0.20277190	-0.64975903	-0.19397982	-0.47095399
4314	43.13000000	-0.95387975	-0.08164821	-0.00827528	-0.64874726	0.09967638	-0.65692349	-0.23523059	-0.74852628	-0.28242900	-0.71142102	-0.41201769	0.20788673	-0.59135099	0.58577123	-0.03760570	-0.62829802	0.17391824	0.23564221	-0.77725437	-0.43126106	-0.16768178	-0.64646856	-0.19434045	-0.46848137
4315	43.14000000	-0.95255372	-0.08725402	-0.01161224	-0.65140740	0.09944462	-0.65827611	-0.21533537	-0.75775016	-0.27892530	-0.72941937	-0.40403144	0.19420521	-0.58306288	0.58924298	-0.02721581	-0.61873654	0.18179507	0.23498335	-0.78227636	-0.43464953	-0.11894627	-0.64560818	-0.19013257	-0.46874539
4316	43.15000000	-0.94918831	-0.08718890	-0.01431149	-0.64528280	0.10481099	-0.66044107	-0.19606339	-0.76004915	-0.27674341	-0.73061134	-0.39005347	0.18850256	-0.58252998	0.59578609	-0.01386995	-0.61261298	0.18590974	0.23506639	-0.79025940	-0.44145336	-0.08316985	-0.64742441	-0.19373786	-0.46903705
4317	43.16000000	-0.95145974	-0.09163832	-0.01806983	-0.64562372	0.11100568	-0.66384606	-0.17484329	-0.76932012	-0.27852697	-0.74101584	-0.38782327	0.17509398	-0.58088760	0.60360182	-0.00808661	-0.61321307	0.19017468	0.23542824	-0.79303456	-0.45460618	-0.03346114	-0.64795665	-0.19702490	-0.46755366
4318	43.17000000	-0.95100283	-0.09375688	-0.01767373	-0.64477867	0.11416792	-0.66677469	-0.15277614	-0.77279227	-0.28547208	-0.75328141	-0.36358132	0.16670498	-0.57298343	0.59852493	-0.01348783	-0.60304079	0.19160351	0.24144158	-0.78864379	-0.46004029	0.01735068	-0.65206148	-0.19470894	-0.46203311
4319	43.18000000	-0.95114517	-0.09796229	-0.01637725	-0.64754037	0.11429889	-0.65937323	-0.12862996	-0.76999103	-0.28151790	-0.75961717	-0.34859137	0.15259781	-0.57212273	0.61036655	-0.01783520	-0.60275586	0.19222156	0.25275586	-0.77590032	-0.47616610	0.06772909	-0.64878956	-0.19514906	-0.46436310
4320	43.19000000	-0.95007232	-0.10377182	-0.01350594	-0.64127778	0.11647981	-0.66224905	-0.10973034	-0.77589035	-0.28947450	-0.76963584	-0.33380177	0.14223384	-0.56150425	0.61376406	-0.02074886	-0.59728252	0.19691689	0.25742758	-0.76667626	-0.48444073	0.10370221	-0.64772885	-0.19752696	-0.46177592
4321	43.20000000	-0.94624629	-0.11207231	-0.01990201	-0.64165854	0.11930170	-0.67118508	-0.09311650	-0.77327934	-0.29169370	-0.78199592	-0.32043393	0.12898180	-0.55921180	0.61807371	-0.02489215	-0.59858436	0.19785871	0.26193627	-0.74864939	-0.49913078	0.13921676	-0.65235180	-0.19990538	-0.46262364
4322	43.21000000	-0.94879147	-0.11170143	-0.02177613	-0.63983613	0.12511446	-0.66813435	-0.08051969	-0.77609065	-0.28319617	-0.79056070	-0.30929171	0.12027383	-0.55095599	0.62384056	-0.02556772	-0.58937638	0.19668265	0.26991336	-0.73277414	-0.51410498	0.15494814	-0.65404513	-0.19832646	-0.46442120
4323	43.22000000	-0.94752983	-0.12443163	-0.02218363	-0.63932166	0.12406227	-0.66141481	-0.05890837	-0.77746346	-0.27602942	-0.79781060	-0.29279586	0.10128958	-0.55240845	0.63021163	-0.02664631	-0.58864551	0.20164934	0.26606423	-0.71891156	-0.53487738	0.13895380	-0.65739286	-0.19233402	-0.46471427
4324	43.23000000	-0.94558142	-0.12802773	-0.01842083	-0.63514632	0.12577682	-0.67213732	-0.05399215	-0.78187057	-0.27543885	-0.79876091	-0.28061539	0.09066428	-0.54703234	0.62710348	-0.02035712	-0.58498113	0.20186846	0.28075466	-0.69967319	-0.55485485	0.13131151	-0.66050137	-0.19293858	-0.46657951
4325	43.24000000	-0.94565762	-0.13726392	-0.01966452	-0.63332685	0.13449633	-0.67456755	-0.04819983	-0.78910691	-0.26457598	-0.80527558	-0.26526005	0.07681505	-0.53561439	0.63972308	-0.02115137	-0.57948182	0.19867830	0.27412023	-0.68128035	-0.57436488	0.11301788	-0.65567323	-0.19315524	-0.46337782
4326	43.25000000	-0.94481801	-0.14478435	-0.01561591	-0.63195231	0.13729398	-0.66987973	-0.04891917	-0.77907044	-0.26670618	-0.81142661	-0.25256167	0.05910826	-0.53586580	0.64281898	-0.01647548	-0.58227742	0.20777835	0.27319900	-0.65539219	-0.58599918	0.08963135	-0.66049684	-0.19541014	-0.45924385
